<?xml version="1.0" standalone="no"?><!DOCTYPE svg PUBLIC "-//W3C//DTD SVG 1.1//EN" "http://www.w3.org/Graphics/SVG/1.1/DTD/svg11.dtd"><svg t="1632887279663" class="icon" viewBox="0 0 1024 1024" version="1.1" xmlns="http://www.w3.org/2000/svg" p-id="4632" xmlns:xlink="http://www.w3.org/1999/xlink" width="16" height="16"><defs><style type="text/css"></style></defs><path d="M416.853 91.947H70.187v732.16h346.666A95.787 95.787 0 0 1 508.8 896h3.2V188.587a96 96 0 0 0-95.147-96.64z" fill="#FFD100" p-id="4633"></path><path d="M512 923.52h-3.2a27.307 27.307 0 0 1-26.667-21.333 67.84 67.84 0 0 0-65.28-48.854H70.187a27.947 27.947 0 0 1-27.52-29.226V91.947A27.733 27.733 0 0 1 70.187 64h346.666A123.733 123.733 0 0 1 539.52 188.587V896A27.52 27.52 0 0 1 512 923.52z m-414.08-128h320a120.96 120.96 0 0 1 67.627 21.333V188.587a68.48 68.48 0 0 0-67.627-68.694h-320z" fill="#555555" p-id="4634"></path><path d="M388.693 400.427h-195.2a27.947 27.947 0 0 1 0-55.894h195.2a27.947 27.947 0 0 1 0 55.894z m0 181.12h-195.2a28.16 28.16 0 0 1 0-56.107h195.2a28.16 28.16 0 0 1 0 56.107zM515.2 922.88H512A27.52 27.52 0 0 1 484.48 896V188.587A123.733 123.733 0 0 1 607.147 64h346.666a27.733 27.733 0 0 1 27.52 27.947V561.28a27.733 27.733 0 1 1-55.253 0V119.893H607.147a68.48 68.48 0 0 0-67.627 68.694v628.266a120.96 120.96 0 0 1 67.627-21.333H926.08v-94.08a27.733 27.733 0 1 1 55.253 0v122.667a27.947 27.947 0 0 1-27.52 29.226H607.147a67.84 67.84 0 0 0-65.28 50.56A27.307 27.307 0 0 1 515.2 923.52z" fill="#555555" p-id="4635"></path><path d="M830.507 323.84h-195.2a27.947 27.947 0 0 1 0-55.893h195.2a27.947 27.947 0 0 1 0 55.893z m0 167.253h-195.2a28.16 28.16 0 0 1 0-56.106h195.2a28.16 28.16 0 0 1 0 56.106z m0 167.04h-195.2a28.16 28.16 0 0 1 0-56.106h195.2a28.16 28.16 0 0 1 0 56.106zM900.48 960H123.307a27.947 27.947 0 0 1 0-55.893H900.48a27.947 27.947 0 0 1 0 55.893z" fill="#555555" p-id="4636"></path></svg>