<?xml version="1.0" standalone="no"?><!DOCTYPE svg PUBLIC "-//W3C//DTD SVG 1.1//EN" "http://www.w3.org/Graphics/SVG/1.1/DTD/svg11.dtd"><svg t="1633096851821" class="icon" viewBox="0 0 1057 1024" version="1.1" xmlns="http://www.w3.org/2000/svg" p-id="13566" xmlns:xlink="http://www.w3.org/1999/xlink" width="132.125" height="128"><defs><style type="text/css"></style></defs><path d="M0.00033 619.453935c0 144.516129 76.733935 278.098581 201.331613 350.34013a401.011613 401.011613 0 0 0 402.663226 0 404.909419 404.909419 0 0 0 201.298581-350.34013c0-144.516129-76.733935-278.065548-201.331613-350.340129a401.011613 401.011613 0 0 0-402.663226 0A404.909419 404.909419 0 0 0 0.00033 619.453935z" fill="#E7EAFF" p-id="13567"></path><path d="M659.026911 657.374968c-203.941161 0-407.353806 75.875097-407.353806 75.875097V0s204.469677 75.842065 408.939354 75.842065S1056.966524 0 1056.966524 0v733.250065S864.025105 657.341935 658.993879 657.341935zM1006.625363 75.842065a1422.831484 1422.831484 0 0 1-347.895742 50.572387c-177.614452 0-356.748387-50.539355-356.748387-50.539355V657.341935s180.686452-50.539355 359.093677-50.539354c116.835097 2.34529 232.877419 19.323871 345.550452 50.539354V75.842065z" fill="#040405" p-id="13568"></path><path d="M666.921621 480.388129c-82.316387 0-239.120516 25.30271-239.120516 25.30271L541.068717 328.670968l88.064 75.842064 113.267613-126.414451 138.405162 214.907871s-131.633548-12.651355-213.916904-12.651355z m-226.535226-164.335484A37.821935 37.821935 0 0 1 402.663556 278.131613c0-20.942452 16.879484-37.921032 37.722839-37.921032a37.987097 37.987097 0 1 1 26.690064 64.743225 37.656774 37.656774 0 0 1-26.690064 11.098839z" fill="#3548C4" p-id="13569"></path></svg>