<?xml version="1.0" standalone="no"?><!DOCTYPE svg PUBLIC "-//W3C//DTD SVG 1.1//EN" "http://www.w3.org/Graphics/SVG/1.1/DTD/svg11.dtd"><svg t="1632889699539" class="icon" viewBox="0 0 1026 1024" version="1.1" xmlns="http://www.w3.org/2000/svg" p-id="4378" xmlns:xlink="http://www.w3.org/1999/xlink" width="16.03125" height="16"><defs><style type="text/css"></style></defs><path d="M978.261333 889.514667h-111.957333c-3.413333 0-6.826667-2.730667-6.826667-6.826667s2.730667-6.826667 6.826667-6.826667h111.274667c17.066667 0 31.402667-14.336 31.402666-32.768 0-17.749333-13.653333-32.768-31.402666-32.768H6.826667c-3.413333 0-6.826667-2.730667-6.826667-6.826666 0-3.413333 2.730667-6.826667 6.826667-6.826667h971.434666c25.258667 0 45.738667 21.162667 45.738667 46.421333 0 25.941333-21.162667 46.421333-45.738667 46.421334z" p-id="4379"></path><path d="M846.506667 889.514667h-22.528c-3.413333 0-6.826667-2.730667-6.826667-6.826667s2.730667-6.826667 6.826667-6.826667h22.528c3.413333 0 6.826667 2.730667 6.826666 6.826667 1.365333 4.096-2.048 6.826667-6.826666 6.826667zM806.229333 889.514667h-10.922666c-3.413333 0-6.826667-2.730667-6.826667-6.826667s2.730667-6.826667 6.826667-6.826667h10.922666c3.413333 0 6.826667 2.730667 6.826667 6.826667s-3.413333 6.826667-6.826667 6.826667zM776.192 889.514667h-259.413333c-3.413333 0-6.826667-2.730667-6.826667-6.826667s2.730667-6.826667 6.826667-6.826667h258.048c3.413333 0 6.826667 2.730667 6.826666 6.826667 1.365333 4.096-2.048 6.826667-5.461333 6.826667zM694.954667 969.386667H314.709333c-25.258667 0-45.738667-21.162667-45.738666-46.421334 0-25.941333 20.48-46.421333 45.738666-46.421333H425.984c3.413333 0 6.826667 2.730667 6.826667 6.826667s-2.730667 6.826667-6.826667 6.826666H314.709333c-17.066667 0-31.402667 14.336-31.402666 32.768 0 17.749333 13.653333 32.768 31.402666 32.768h380.245334c3.413333 0 6.826667 2.730667 6.826666 6.826667 0 3.413333-3.413333 6.826667-6.826666 6.826667z" p-id="4380"></path><path d="M468.309333 889.514667h-22.528c-3.413333 0-6.826667-2.730667-6.826666-6.826667s2.730667-6.826667 6.826666-6.826667h22.528c3.413333 0 6.826667 2.730667 6.826667 6.826667 0.682667 4.096-2.730667 6.826667-6.826667 6.826667zM498.346667 889.514667H487.424c-3.413333 0-6.826667-2.730667-6.826667-6.826667s2.730667-6.826667 6.826667-6.826667h10.922667c3.413333 0 6.826667 2.730667 6.826666 6.826667s-3.413333 6.826667-6.826666 6.826667z" p-id="4381"></path><path d="M94.890667 248.490667h834.218666v554.325333H94.890667z" fill="#CFB897" p-id="4382"></path><path d="M922.282667 255.317333v540.672H101.717333V255.317333h820.565334m8.874666-12.970666H92.842667c-2.730667 0-4.778667 2.048-4.778667 4.778666V805.546667c0 2.730667 2.048 4.778667 4.778667 4.778666H931.157333c2.730667 0 4.778667-2.048 4.778667-4.778666V246.442667c-0.682667-2.048-2.730667-4.096-4.778667-4.096z" p-id="4383"></path><path d="M227.328 181.589333h568.661333v66.901334H227.328z" fill="#FFD48C" p-id="4384"></path><path d="M789.845333 187.733333v53.930667H234.154667v-53.930667h555.690666m11.605334-12.970666H221.866667c-0.682667 0-1.365333 0.682667-1.365334 1.365333v77.824c0 0.682667 0.682667 1.365333 1.365334 1.365333H801.450667c0.682667 0 1.365333-0.682667 1.365333-1.365333V176.128c0-0.682667-0.682667-1.365333-1.365333-1.365333z" p-id="4385"></path><path d="M359.765333 137.216h304.469334v43.690667H359.765333z" fill="#CFB897" p-id="4386"></path><path d="M657.408 144.042667v30.72H366.592v-30.72h290.816m12.288-13.653334H353.621333c-0.682667 0-0.682667 0.682667-0.682666 0.682667v55.296c0 0.682667 0.682667 0.682667 0.682666 0.682667h316.074667c0.682667 0 0.682667-0.682667 0.682667-0.682667v-55.296c0.682667 0 0-0.682667-0.682667-0.682667z" p-id="4387"></path><path d="M380.245333 117.418667h262.826667v20.48H380.245333z" fill="#FFD48C" p-id="4388"></path><path d="M636.928 123.562667v6.826666H387.072v-6.826666h249.856m12.288-12.970667H374.101333c-0.682667 0-0.682667 0-0.682666 0.682667V143.36c0 0.682667 0 0.682667 0.682666 0.682667h275.114667c0.682667 0 0.682667 0 0.682667-0.682667l-0.682667-32.768c0.682667 0 0.682667 0 0 0z" p-id="4389"></path><path d="M124.928 314.026667h774.144v33.450666H124.928z" fill="#CFB897" p-id="4390"></path><path d="M892.245333 320.853333v19.797334H131.754667V320.853333h760.490666m12.288-13.653333h-785.066666c-0.682667 0-1.365333 0.682667-1.365334 1.365333v44.373334c0 0.682667 0.682667 1.365333 1.365334 1.365333h785.066666c0.682667 0 1.365333-0.682667 1.365334-1.365333v-44.373334c-0.682667-0.682667-0.682667-1.365333-1.365334-1.365333z" p-id="4391"></path><path d="M400.042667 96.938667h223.232v20.48H400.042667z" fill="#CFB897" p-id="4392"></path><path d="M616.448 103.765333v6.826667H406.869333v-6.826667h209.578667m12.970667-13.653333H393.898667s-0.682667 0-0.682667 0.682667V122.88s0 0.682667 0.682667 0.682667h235.52s0.682667 0 0.682666-0.682667l-0.682666-32.768c0.682667 0.682667 0 0 0 0z" p-id="4393"></path><path d="M59.392 287.402667h904.533333V314.026667H59.392z" fill="#FFD48C" p-id="4394"></path><path d="M957.098667 294.229333v13.653334H66.218667v-13.653334h890.88m12.288-13.653333H53.930667c-0.682667 0-1.365333 0.682667-1.365334 1.365333v37.546667c0 0.682667 0.682667 1.365333 1.365334 1.365333h915.456c0.682667 0 1.365333-0.682667 1.365333-1.365333v-37.546667c0-0.682667-0.682667-1.365333-1.365333-1.365333z" p-id="4395"></path><path d="M138.581333 347.477333h23.210667v455.338667h-23.210667z" fill="#FFD48C" p-id="4396"></path><path d="M154.965333 354.304v441.685333h-9.557333V354.304h9.557333m12.970667-13.653333H132.437333c-0.682667 0-0.682667 0.682667-0.682666 0.682666v466.944c0 0.682667 0.682667 0.682667 0.682666 0.682667h34.816c0.682667 0 0.682667-0.682667 0.682667-0.682667V341.333333c0.682667 0 0-0.682667 0-0.682666z" p-id="4397"></path><path d="M353.621333 347.477333h23.210667v455.338667h-23.210667z" fill="#FFD48C" p-id="4398"></path><path d="M370.005333 354.304v441.685333h-9.557333V354.304h9.557333m12.970667-13.653333h-34.816c-0.682667 0-0.682667 0.682667-0.682667 0.682666v466.944c0 0.682667 0.682667 0.682667 0.682667 0.682667h34.816c0.682667 0 0.682667-0.682667 0.682667-0.682667V341.333333s0-0.682667-0.682667-0.682666z" p-id="4399"></path><path d="M633.514667 347.477333h23.210666v455.338667h-23.210666z" fill="#FFD48C" p-id="4400"></path><path d="M650.581333 354.304v441.685333h-9.557333V354.304h9.557333m12.288-13.653333h-34.816c-0.682667 0-0.682667 0.682667-0.682666 0.682666v466.944c0 0.682667 0.682667 0.682667 0.682666 0.682667h34.816c0.682667 0 0.682667-0.682667 0.682667-0.682667V341.333333s0-0.682667-0.682667-0.682666z" p-id="4401"></path><path d="M862.208 347.477333h23.210667v455.338667h-23.210667z" fill="#FFD48C" p-id="4402"></path><path d="M878.592 354.304v441.685333h-9.557333V354.304h9.557333m12.970667-13.653333h-34.816c-0.682667 0-0.682667 0.682667-0.682667 0.682666v466.944c0 0.682667 0.682667 0.682667 0.682667 0.682667h34.816c0.682667 0 0.682667-0.682667 0.682666-0.682667V341.333333l-0.682666-0.682666z" p-id="4403"></path><path d="M188.416 802.816V586.410667c0-38.229333 31.402667-69.632 69.632-69.632s69.632 31.402667 69.632 69.632v216.405333H188.416z" fill="#FFFFFF" p-id="4404"></path><path d="M258.048 523.605333c34.816 0 62.805333 27.989333 62.805333 62.805334v209.578666H195.242667V586.410667c0-34.816 27.989333-62.805333 62.805333-62.805334m0-13.653333c-42.325333 0-76.458667 34.133333-76.458667 76.458667v223.232h152.234667V586.410667c0.682667-42.325333-33.450667-76.458667-75.776-76.458667z" p-id="4405"></path><path d="M124.928 774.826667h62.805333v27.306666h-62.805333z" fill="#FFD48C" p-id="4406"></path><path d="M181.589333 781.653333v14.336h-49.834666v-14.336h49.834666m8.874667-12.970666h-67.584c-2.730667 0-4.778667 2.048-4.778667 4.778666v32.085334c0 2.730667 2.048 4.778667 4.778667 4.778666h67.584c2.730667 0 4.778667-2.048 4.778667-4.778666v-32.085334c-0.682667-2.730667-2.730667-4.778667-4.778667-4.778666z" p-id="4407"></path><path d="M326.997333 774.826667h62.805334v27.306666h-62.805334z" fill="#FFD48C" p-id="4408"></path><path d="M383.658667 781.653333v14.336h-49.834667v-14.336h49.834667m8.874666-12.970666h-67.584c-2.730667 0-4.778667 2.048-4.778666 4.778666v32.085334c0 2.730667 2.048 4.778667 4.778666 4.778666h67.584c2.730667 0 4.778667-2.048 4.778667-4.778666v-32.085334c-0.682667-2.730667-2.048-4.778667-4.778667-4.778666z" p-id="4409"></path><path d="M243.029333 492.202667h29.354667v48.469333h-29.354667z" fill="#FFD48C" p-id="4410"></path><path d="M266.24 499.029333v34.816h-16.384v-34.816h16.384m8.874667-12.970666h-34.816c-2.048 0-4.096 2.048-4.096 4.096v53.248c0 2.048 2.048 4.096 4.096 4.096h34.816c2.048 0 4.096-2.048 4.096-4.096v-53.248c0-2.730667-1.365333-4.096-4.096-4.096z" p-id="4411"></path><path d="M418.474667 802.816V544.085333c0-47.104 38.229333-85.333333 85.333333-85.333333h2.730667c47.104 0 85.333333 38.229333 85.333333 85.333333v258.730667H418.474667z" fill="#FFFFFF" p-id="4412"></path><path d="M506.538667 464.896c43.690667 0 79.189333 35.498667 79.189333 79.189333v251.904H425.301333V544.085333c0-43.690667 35.498667-79.189333 79.189334-79.189333h2.048m0-12.970667h-2.730667c-51.2 0-92.16 41.642667-92.16 92.16v264.874667h187.050667V544.085333c0-51.2-40.96-92.16-92.16-92.16z" p-id="4413"></path><path d="M488.789333 432.128h32.085334V491.52h-32.085334z" fill="#FFD48C" p-id="4414"></path><path d="M514.730667 438.954667V484.693333h-19.114667v-45.738666H514.730667m8.874666-13.653334h-36.864c-2.730667 0-4.778667 2.048-4.778666 4.778667v63.488c0 2.730667 2.048 4.778667 4.778666 4.778667h36.864c2.730667 0 4.778667-2.048 4.778667-4.778667V430.08c0-2.730667-2.048-4.778667-4.778667-4.778667z" p-id="4415"></path><path d="M592.554667 463.530667c-10.24-12.970667-21.845333-23.210667-34.816-30.037334h34.816v30.037334z" fill="#FFFFFF" p-id="4416"></path><path d="M585.728 439.637333v6.144c-2.048-2.048-4.778667-4.096-6.826667-6.144h6.826667m12.970667-13.653333H507.221333c38.912 0 73.045333 23.893333 92.16 59.392v-59.392h-0.682666z" p-id="4417"></path><path d="M418.474667 432.810667H453.290667c-12.970667 7.509333-24.576 17.749333-34.816 30.037333v-30.037333z" fill="#FFFFFF" p-id="4418"></path><path d="M432.128 439.637333c-2.048 2.048-4.778667 4.096-6.826667 6.144v-6.144h6.826667m71.68-13.653333H411.648v59.392c19.114667-35.498667 53.248-59.392 92.16-59.392z" p-id="4419"></path><path d="M683.349333 802.816V586.410667c0-38.229333 31.402667-69.632 69.632-69.632s69.632 31.402667 69.632 69.632v216.405333H683.349333z" fill="#FFFFFF" p-id="4420"></path><path d="M752.981333 523.605333c34.816 0 62.805333 27.989333 62.805334 62.805334v209.578666h-125.610667V586.410667c0-34.816 27.989333-62.805333 62.805333-62.805334m0-13.653333c-42.325333 0-76.458667 34.133333-76.458666 76.458667v223.232H828.757333V586.410667c0.682667-42.325333-33.450667-76.458667-75.776-76.458667z" p-id="4421"></path><path d="M620.544 774.826667h62.805333v27.306666h-62.805333z" fill="#FFD48C" p-id="4422"></path><path d="M676.522667 781.653333v14.336h-49.834667v-14.336h49.834667m8.874666-12.970666h-67.584c-2.730667 0-4.778667 2.048-4.778666 4.778666v32.085334c0 2.730667 2.048 4.778667 4.778666 4.778666h67.584c2.730667 0 4.778667-2.048 4.778667-4.778666v-32.085334c0-2.730667-2.048-4.778667-4.778667-4.778666z" p-id="4423"></path><path d="M822.613333 774.826667h62.805334v27.306666h-62.805334z" fill="#FFD48C" p-id="4424"></path><path d="M878.592 781.653333v14.336H828.757333v-14.336h49.834667m8.874667-12.970666h-67.584c-2.730667 0-4.778667 2.048-4.778667 4.778666v32.085334c0 2.730667 2.048 4.778667 4.778667 4.778666h67.584c2.730667 0 4.778667-2.048 4.778666-4.778666v-32.085334c0-2.730667-2.048-4.778667-4.778666-4.778666z" p-id="4425"></path><path d="M738.645333 492.202667h29.354667v48.469333h-29.354667z" fill="#FFD48C" p-id="4426"></path><path d="M761.173333 499.029333v34.816h-16.384v-34.816h16.384m9.557334-12.970666h-34.816c-2.048 0-4.096 2.048-4.096 4.096v53.248c0 2.048 2.048 4.096 4.096 4.096h34.816c2.048 0 4.096-2.048 4.096-4.096v-53.248c0-2.730667-2.048-4.096-4.096-4.096z" p-id="4427"></path><path d="M515.413333 101.034667c-3.413333 0-6.826667-2.730667-6.826666-6.826667V11.605333c0-3.413333 2.730667-6.826667 6.826666-6.826666s6.826667 2.730667 6.826667 6.826666v82.602667c-0.682667 4.096-3.413333 6.826667-6.826667 6.826667z" p-id="4428"></path></svg>