<?xml version="1.0" standalone="no"?><!DOCTYPE svg PUBLIC "-//W3C//DTD SVG 1.1//EN" "http://www.w3.org/Graphics/SVG/1.1/DTD/svg11.dtd"><svg t="1632889673485" class="icon" viewBox="0 0 1024 1024" version="1.1" xmlns="http://www.w3.org/2000/svg" p-id="3408" xmlns:xlink="http://www.w3.org/1999/xlink" width="16" height="16"><defs><style type="text/css"></style></defs><path d="M625.836883 146.817662h-239.376623c41.491948-44.683636 95.750649-82.983896 118.092467-124.475844 0-6.383377 0-15.958442 3.191689-22.341818-15.958442 47.875325 76.600519 92.558961 118.092467 146.817662z m89.367273 22.341819v22.341818c22.341818 12.766753 63.833766 38.30026 73.408831 38.300259 9.575065 0 19.15013-3.191688 28.725195-15.958441-3.191688 6.383377-6.383377 15.958442-12.766753 25.533506s-25.533506 22.341818-35.108572 22.341819H239.642597c-19.15013 0-47.875325-35.108571-44.683636-47.875325 9.575065 12.766753 19.15013 15.958442 28.725195 15.958441 9.575065 0 67.025455-38.30026 73.408831-44.683636v-15.958441h418.111169zM290.70961 303.21039h430.877922v-12.766754h-430.877922v12.766754z m19.15013 79.792207h392.577663v-57.450389H309.85974v57.450389z m459.603117 54.258702c9.575065 6.383377 73.408831 51.067013 95.750649 51.067013 9.575065 0 25.533506-9.575065 35.108572-22.341818-3.191688 19.15013-22.341818 31.916883-22.341818 51.067012 0 3.191688-6.383377 9.575065-9.575065 12.766754H140.70026l6.383376-6.383377c-12.766753-19.15013-28.725195-25.533506-35.108571-47.875325v-9.575064c6.383377 12.766753 22.341818 22.341818 35.108571 22.341818 19.15013 0 86.175584-47.875325 92.558961-51.067013 3.191688-6.383377 3.191688-15.958442 3.191689-28.725195h526.628571v28.725195z m-548.970389 130.85922h609.612467v-12.766753H220.492468v12.766753z m542.587013 25.533507v54.258701H249.217662c0-12.766753 3.191688-31.916883 3.191689-38.300259 0-9.575065-9.575065-9.575065-9.575065-15.958442h520.245195z m79.792207 82.983896v38.30026c3.191688 0 95.750649 60.642078 118.092468 60.642078 12.766753 0 31.916883-6.383377 44.683636-28.725195 9.575065 19.15013-41.491948 79.792208-70.217143 79.792208H73.674805c-9.575065-3.191688-25.533506-9.575065-35.108571-19.15013-15.958442-12.766753-31.916883-38.30026-31.916883-44.683637v-15.958441c9.575065 22.341818 28.725195 28.725195 44.683636 28.725195 28.725195 0 95.750649-51.067013 114.900779-60.642078 3.191688 0 3.191688-6.383377 3.191689-9.575065v-28.725195h673.446233z m-686.212987 194.692987h698.979741v-15.958441H156.658701v15.958441z m31.916883 76.60052h635.145974v-57.45039H188.575584v57.45039z m-92.558961 67.025454H916.280519v-35.108571H96.016623v35.108571z" fill="#B28500" p-id="3409"></path></svg>