<?xml version="1.0" standalone="no"?><!DOCTYPE svg PUBLIC "-//W3C//DTD SVG 1.1//EN" "http://www.w3.org/Graphics/SVG/1.1/DTD/svg11.dtd"><svg t="1632887758145" class="icon" viewBox="0 0 1024 1024" version="1.1" xmlns="http://www.w3.org/2000/svg" p-id="12664" xmlns:xlink="http://www.w3.org/1999/xlink" width="16" height="16"><defs><style type="text/css"></style></defs><path d="M187.7 415.8c0 127.7 145.4 221.5 324.8 221.5s324.8-93.8 324.8-221.5H187.7z" fill="#A4A9AD" p-id="12665"></path><path d="M393.2 593m-5.8 0a5.8 5.8 0 1 0 11.6 0 5.8 5.8 0 1 0-11.6 0Z" fill="" p-id="12666"></path><path d="M245.7 491.2m-5.8 0a5.8 5.8 0 1 0 11.6 0 5.8 5.8 0 1 0-11.6 0Z" fill="" p-id="12667"></path><path d="M343.3 458.4m-5.8 0a5.8 5.8 0 1 0 11.6 0 5.8 5.8 0 1 0-11.6 0Z" fill="" p-id="12668"></path><path d="M518.4 564.4m-5.8 0a5.8 5.8 0 1 0 11.6 0 5.8 5.8 0 1 0-11.6 0Z" fill="" p-id="12669"></path><path d="M621.4 596.8m-5.8 0a5.8 5.8 0 1 0 11.6 0 5.8 5.8 0 1 0-11.6 0Z" fill="" p-id="12670"></path><path d="M765.4 491.2m-5.8 0a5.8 5.8 0 1 0 11.6 0 5.8 5.8 0 1 0-11.6 0Z" fill="" p-id="12671"></path><path d="M583.7 469.7m-5.8 0a5.8 5.8 0 1 0 11.6 0 5.8 5.8 0 1 0-11.6 0Z" fill="" p-id="12672"></path><path d="M707.1 570.2m-5.8 0a5.8 5.8 0 1 0 11.6 0 5.8 5.8 0 1 0-11.6 0Z" fill="" p-id="12673"></path><path d="M465.3 485.3m-5.8 0a5.8 5.8 0 1 0 11.6 0 5.8 5.8 0 1 0-11.6 0Z" fill="" p-id="12674"></path><path d="M229.7 527.1c12.1 14.6 26.5 28.1 43 40.2h479.9c16.5-12.1 30.9-25.6 43-40.2H229.7zM187.7 415.8c0 18.7 3.2 36.7 9.1 53.8h631.6c5.9-17.1 9.1-35.1 9.1-53.8H187.7z" fill="" p-id="12675"></path><path d="M512.6 322.2m-81.1 0a81.1 81.1 0 1 0 162.2 0 81.1 81.1 0 1 0-162.2 0Z" fill="#A4A9AD" p-id="12676"></path><path d="M561.5 292.8m-5.8 0a5.8 5.8 0 1 0 11.6 0 5.8 5.8 0 1 0-11.6 0Z" fill="" p-id="12677"></path><path d="M461.5 357.3m-5.8 0a5.8 5.8 0 1 0 11.6 0 5.8 5.8 0 1 0-11.6 0Z" fill="" p-id="12678"></path><path d="M471.1 278m-5.8 0a5.8 5.8 0 1 0 11.6 0 5.8 5.8 0 1 0-11.6 0Z" fill="" p-id="12679"></path><path d="M499.1 315.6m-5.8 0a5.8 5.8 0 1 0 11.6 0 5.8 5.8 0 1 0-11.6 0Z" fill="" p-id="12680"></path><path d="M547.7 339.8m-5.8 0a5.8 5.8 0 1 0 11.6 0 5.8 5.8 0 1 0-11.6 0Z" fill="" p-id="12681"></path><path d="M865.8 403.3c0-12.2-10-22.2-22.2-22.2H181.5c-12.2 0-22.2 10-22.2 22.2v17c0 12.2 10 22.2 22.2 22.2h662.1c12.2 0 22.2-10 22.2-22.2v-17z" fill="#D1D3D3" p-id="12682"></path><path d="M153.5 664.8h718.1v257.5H153.5z" fill="#A4A9AD" p-id="12683"></path><path d="M843.3 743.5m-5.8 0a5.8 5.8 0 1 0 11.6 0 5.8 5.8 0 1 0-11.6 0Z" fill="" p-id="12684"></path><path d="M184.4 893.3m-5.8 0a5.8 5.8 0 1 0 11.6 0 5.8 5.8 0 1 0-11.6 0Z" fill="" p-id="12685"></path><path d="M388.4 781.6m-5.8 0a5.8 5.8 0 1 0 11.6 0 5.8 5.8 0 1 0-11.6 0Z" fill="" p-id="12686"></path><path d="M808.9 881.3m-5.8 0a5.8 5.8 0 1 0 11.6 0 5.8 5.8 0 1 0-11.6 0Z" fill="" p-id="12687"></path><path d="M711.4 701.3m-5.8 0a5.8 5.8 0 1 0 11.6 0 5.8 5.8 0 1 0-11.6 0Z" fill="" p-id="12688"></path><path d="M419.4 682.6m-5.8 0a5.8 5.8 0 1 0 11.6 0 5.8 5.8 0 1 0-11.6 0Z" fill="" p-id="12689"></path><path d="M220.7 798m-5.8 0a5.8 5.8 0 1 0 11.6 0 5.8 5.8 0 1 0-11.6 0Z" fill="" p-id="12690"></path><path d="M435.7 869.7m-5.8 0a5.8 5.8 0 1 0 11.6 0 5.8 5.8 0 1 0-11.6 0Z" fill="" p-id="12691"></path><path d="M636.8 830.5m-5.8 0a5.8 5.8 0 1 0 11.6 0 5.8 5.8 0 1 0-11.6 0Z" fill="" p-id="12692"></path><path d="M564.3 733m-5.8 0a5.8 5.8 0 1 0 11.6 0 5.8 5.8 0 1 0-11.6 0Z" fill="" p-id="12693"></path><path d="M196.9 712.9m-5.8 0a5.8 5.8 0 1 0 11.6 0 5.8 5.8 0 1 0-11.6 0Z" fill="" p-id="12694"></path><path d="M291.6 817.9m-51.7 0a51.7 51.7 0 1 0 103.4 0 51.7 51.7 0 1 0-103.4 0Z" fill="" p-id="12695"></path><path d="M733.6 817.9m-51.7 0a51.7 51.7 0 1 0 103.4 0 51.7 51.7 0 1 0-103.4 0Z" fill="" p-id="12696"></path><path d="M512.6 817.9m-51.7 0a51.7 51.7 0 1 0 103.4 0 51.7 51.7 0 1 0-103.4 0Z" fill="" p-id="12697"></path><path d="M153.5 664.8h718.1v48.1H153.5z" fill="" p-id="12698"></path><path d="M914.4 643.7c0-12.2-10-22.2-22.2-22.2H133c-12.2 0-22.2 10-22.2 22.2v16.7c0 12.2 10 22.2 22.2 22.2h759.2c12.2 0 22.2-10 22.2-22.2v-16.7z" fill="#D1D3D3" p-id="12699"></path><path d="M291.6 798m-51.7 0a51.7 51.7 0 1 0 103.4 0 51.7 51.7 0 1 0-103.4 0Z" fill="#D1D3D3" p-id="12700"></path><path d="M291.6 798m-16.4 0a16.4 16.4 0 1 0 32.8 0 16.4 16.4 0 1 0-32.8 0Z" fill="#A4A9AD" p-id="12701"></path><path d="M733.6 798m-51.7 0a51.7 51.7 0 1 0 103.4 0 51.7 51.7 0 1 0-103.4 0Z" fill="#D1D3D3" p-id="12702"></path><path d="M733.6 798m-16.4 0a16.4 16.4 0 1 0 32.8 0 16.4 16.4 0 1 0-32.8 0Z" fill="#A4A9AD" p-id="12703"></path><path d="M512.6 798m-51.7 0a51.7 51.7 0 1 0 103.4 0 51.7 51.7 0 1 0-103.4 0Z" fill="#D1D3D3" p-id="12704"></path><path d="M512.6 798m-14.5 0a14.5 14.5 0 1 0 29 0 14.5 14.5 0 1 0-29 0Z" fill="#A4A9AD" p-id="12705"></path><path d="M629.2 64.7c-50.6 0-94.6 28.8-116.6 70.8-22-42-66-70.8-116.6-70.8-72.5 0-131.5 59-131.5 131.5 0 8.2 6.7 14.9 14.9 14.9s14.9-6.7 14.9-14.9c0-56.1 45.6-101.7 101.7-101.7s101.7 45.6 101.7 101.7c0 8.2 6.7 14.9 14.9 14.9s14.9-6.7 14.9-14.9c0-56.1 45.6-101.7 101.7-101.7s101.7 45.6 101.7 101.7c0 8.2 6.7 14.9 14.9 14.9s14.9-6.7 14.9-14.9c0-72.5-59-131.5-131.5-131.5zM279.4 316.1c-8.2 0-14.9-6.7-14.9-14.9v-44.3c0-8.2 6.7-14.9 14.9-14.9s14.9 6.7 14.9 14.9v44.3c0 8.2-6.7 14.9-14.9 14.9zM733.6 326.1c-8.2 0-14.9-6.7-14.9-14.9v-15.5c0-8.2 6.7-14.9 14.9-14.9s14.9 6.7 14.9 14.9v15.5c0 8.2-6.7 14.9-14.9 14.9z" fill="#00B3E3" p-id="12706"></path><path d="M950.3 919.3c0-11.1-9.1-20.1-20.1-20.1H95c-11.1 0-20.1 9.1-20.1 20.1v20.1c0 11.1 9.1 20.1 20.1 20.1h835.1c11.1 0 20.1-9.1 20.1-20.1v-20.1z" fill="#218649" p-id="12707"></path><path d="M825.9 542.1H199.3c-8.2 0-14.9-6.7-14.9-14.9s6.7-14.9 14.9-14.9h626.6c8.2 0 14.9 6.7 14.9 14.9s-6.7 14.9-14.9 14.9z" fill="#D1D3D3" p-id="12708"></path></svg>