<?xml version="1.0" standalone="no"?><!DOCTYPE svg PUBLIC "-//W3C//DTD SVG 1.1//EN" "http://www.w3.org/Graphics/SVG/1.1/DTD/svg11.dtd"><svg t="1632887730644" class="icon" viewBox="0 0 1024 1024" version="1.1" xmlns="http://www.w3.org/2000/svg" p-id="11421" xmlns:xlink="http://www.w3.org/1999/xlink" width="16" height="16"><defs><style type="text/css"></style></defs><path d="M890.421826 979.478609H133.564174c-49.175328 0-89.042783-39.867455-89.042783-89.042783V133.578174c0-49.175328 39.865455-89.042783 89.042783-89.042783h756.859652c49.175328 0 89.042783 39.865455 89.042783 89.042783v756.859652c-0.002 49.175328-39.867455 89.040783-89.044783 89.040783z" fill="#EAFFFF" p-id="11422"></path><path d="M1023.986 133.578174c0 24.589664-19.931727 44.521391-44.521391 44.521391h-155.82387c-24.589664 0-44.521391-19.931727-44.521391-44.521391h-89.042783c-24.589664 0-44.521391-19.931727-44.521391-44.521392s19.931727-44.521391 44.521391-44.521391h155.82387c24.589664 0 44.521391 19.931727 44.521391 44.521391h89.042783c24.589664 0 44.521391 19.931727 44.521391 44.521392z" fill="#C5EAD4" p-id="11423"></path><path d="M378.428826 189.229413c0 104.500571-84.714842 189.215413-189.215413 189.215413S0 293.727984 0 189.229413 84.714842 0.014 189.215413 0.014s189.213413 84.714842 189.213413 189.215413z" fill="#FFFF81" p-id="11424"></path><path d="M289.388044 189.229413c0 55.323244-44.847387 100.17263-100.172631 100.17263s-100.17263-44.847387-100.17263-100.17263 44.847387-100.17263 100.17263-100.172631 100.17263 44.847387 100.172631 100.172631z" fill="#FFF145" p-id="11425"></path><path d="M1023.986 979.478609c0 24.589664-19.931727 44.521391-44.521391 44.521391H44.521391C19.931727 1024 0 1004.068273 0 979.478609V734.611956h1023.986v244.866653z" fill="#BBF260" p-id="11426"></path><path d="M801.381044 483.605388c0 77.156945-62.547145 139.70609-139.70609 139.70609H317.789655c-77.156945 0-139.70609-62.547145-139.70609-139.70609 0-53.133274 29.663594-99.332642 73.332998-122.954319a139.336095 139.336095 0 0 1-8.853879-48.98933c0-53.133274 29.663594-99.332642 73.332997-122.954319a139.336095 139.336095 0 0 1-8.853879-48.98933C307.041802 62.561145 369.590947 0.014 446.747892 0.014h85.972825c77.156945 0 139.70409 62.547145 139.70409 139.70409a139.336095 139.336095 0 0 1-8.853879 48.98933c43.669403 23.623677 73.332997 69.823045 73.332997 122.954319a139.336095 139.336095 0 0 1-8.853879 48.98933c43.665403 23.619677 73.330997 69.823045 73.330998 122.954319z" fill="#9FBA41" p-id="11427"></path><path d="M1023.986 578.788087v133.564174l-255.9965-22.259696h-122.432326c-61.47116 0-111.302478-49.833319-111.302478-111.302478 0-53.845264 38.239477-98.75865 89.042782-109.072509v-57.881209c0-79.910907 64.781114-144.694022 144.694022-144.694021 79.910907 0 144.694022 64.781114 144.694022 144.694021v55.65124c61.46716-0.002 111.300478 49.831319 111.300478 111.300478z" fill="#7F932A" p-id="11428"></path><path d="M1023.986 723.482109c0 67.619076-54.815251 122.432326-122.432326 122.432326H122.432326C54.815251 845.916435 0 791.101184 0 723.482109s54.815251-122.432326 122.432326-122.432326h779.119348c67.619076 0 122.434326 54.813251 122.434326 122.432326z" fill="#91C1A4" p-id="11429"></path><path d="M907.117598 763.551561a16.697772 16.697772 0 0 1-16.695772 16.695772H489.733304a16.697772 16.697772 0 0 1 0-33.391544h400.690522a16.695772 16.695772 0 0 1 16.693772 16.695772z m-346.151267-80.138905a16.697772 16.697772 0 0 0-16.695772-16.695771h-165.841733a16.697772 16.697772 0 0 0 0 33.391543h165.841733a16.695772 16.695772 0 0 0 16.695772-16.695772z m-405.142461-16.693771h-54.539255a16.697772 16.697772 0 0 0 0 33.391543h54.539255a16.697772 16.697772 0 0 0 0-33.391543z m467.471608 33.389543h200.345261a16.697772 16.697772 0 0 0 0-33.391543H623.295478a16.697772 16.697772 0 0 0 0 33.391543z" fill="#EAFFFF" p-id="11430"></path><path d="M578.774087 1011.280174a12.719826 12.719826 0 0 1-12.719826 12.719826H57.241217a12.719826 12.719826 0 0 1-12.719826-12.719826c0-58.749197 30.665581-110.308492 76.83695-139.640091 6.365913-85.510831 77.710938-152.925909 164.849746-152.925909 79.482913 0 145.846006 56.087233 161.727789 130.838211 74.750978 15.881783 130.838211 82.242876 130.838211 161.727789z" fill="#9FBA41" p-id="11431"></path><path d="M957.204913 907.131598a16.697772 16.697772 0 0 1-16.695772 16.695772h-22.259695a16.697772 16.697772 0 0 1 0-33.391544h22.259695a16.697772 16.697772 0 0 1 16.695772 16.695772z m-218.433013 50.087315h-43.129411a16.697772 16.697772 0 0 0 0 33.391543h43.129411a16.697772 16.697772 0 0 0 0-33.391543z" fill="#7F932A" p-id="11432"></path></svg>