<?xml version="1.0" standalone="no"?><!DOCTYPE svg PUBLIC "-//W3C//DTD SVG 1.1//EN" "http://www.w3.org/Graphics/SVG/1.1/DTD/svg11.dtd"><svg t="1632887483579" class="icon" viewBox="0 0 1024 1024" version="1.1" xmlns="http://www.w3.org/2000/svg" p-id="10395" xmlns:xlink="http://www.w3.org/1999/xlink" width="16" height="16"><defs><style type="text/css"></style></defs><path d="M0 0h1024v1024H0z" fill="#000000" fill-opacity="0" p-id="10396"></path><path d="M326.775467 541.252267h119.381333c18.619733 0 34.304 13.943467 36.471467 32.426666l0.256 4.317867v119.364267a156.1088 156.1088 0 1 1-163.669334-155.921067l7.560534-0.170667h119.381333-119.381333z m370.449066 0a156.1088 156.1088 0 1 1-156.1088 156.1088v-119.364267c0-20.309333 16.4352-36.744533 36.727467-36.744533h119.381333z m0-370.5856a156.1088 156.1088 0 0 1 7.560534 312.046933l-7.560534 0.170667h-119.381333a36.727467 36.727467 0 0 1-36.522667-32.426667l-0.2048-4.3008v-119.381333A156.1088 156.1088 0 0 1 697.224533 170.666667z m-370.449066 0a156.1088 156.1088 0 0 1 156.1088 156.1088v119.381333a36.727467 36.727467 0 0 1-36.727467 36.727467h-119.381333a156.1088 156.1088 0 1 1 0-312.2176z" fill="#4B92E3" p-id="10397"></path></svg>